<svg xmlns="http://www.w3.org/2000/svg" width="93" height="37" fill="none"><path d="M20.144 29.906a44.352 44.352 0 0 1-7.739 4.958 8.763 8.763 0 0 1-3.714 1.131 3.537 3.537 0 0 1-3.256-1.785 3.357 3.357 0 0 1 .69-3.572 6.322 6.322 0 0 1 3.381-1.786c3.733-.821 7.626.274 11.143 1.786 3.518 1.512 6.894 3.435 10.62 4.393a21.976 21.976 0 0 0 20.162-5.12C57.288 24.43 59.836 15.96 66.11 10.96 73.467 5.1 83.967 5.464 92.462 1.435L70.735 6.697c-2.334.565-5.846 2.327-7.953.595-2.34-1.91-3.179-4.25-6.548-4.857-4.053-.756-8.024 1.452-11.274 3.964-3.17 2.418-6.052 5.144-8.84 7.969m0 0C25.535 7.258 13.863 3.066 1 1c1.756 4.286 2.762 7.625 4.792 11.69 2.03 4.066 4.274 8.102 7.298 11.543a24.751 24.751 0 0 0 5.125 4.494c1.09.703 1.512 1.101 2.649.631.964-.416 1.982-1.69 2.75-2.38 4.397-3.963 8.348-8.397 12.506-12.61Z" stroke="#fff" stroke-linecap="round" stroke-linejoin="round"/></svg>