<svg xmlns="http://www.w3.org/2000/svg" viewBox="0 0 71.38 30.89" width="71.38" height="30.89">
  <defs>
    <style>
      .a{fill:#58c5ca}
    </style>
  </defs>
  <path class="a" d="M29.11 20.3a27.66 27.66 0 01-3.64 2.53 11.84 11.84 0 01-2.03.98 2.89 2.89 0 01-2.3-.11 1.82 1.82 0 01-.93-2.09 2.7 2.7 0 011.5-1.77 7.53 7.53 0 014.5-.4c3 .53 5.56 2.2 8.3 3.17a12.57 12.57 0 008.45-.1 12.17 12.17 0 003.73-2.12 16.61 16.61 0 002.86-3.3c1.68-2.35 3.04-5.01 5.2-7.2a16.48 16.48 0 017.97-3.9 42.75 42.75 0 008.45-2.5l.1.27-8.54 2.15-4.25 1.1c-.7.19-1.38.46-2.12.63a3.2 3.2 0 01-2.32-.15c-1.3-.9-2-2.35-3.32-2.79a5.57 5.57 0 00-4.04.35 15.18 15.18 0 00-3.6 2.34c-1.1.92-2.2 1.9-3.23 2.92-2.08 2.04-4.03 4.23-6.11 6.31-1.02 1.1-2.2 2.04-3.18 3.07a3 3 0 01-1.1.7 1.55 1.55 0 01-.75.06 1.91 1.91 0 01-.64-.28 15.14 15.14 0 01-1.83-1.33 23.86 23.86 0 01-5.28-7.15 65.37 65.37 0 01-3.38-8.14.34.34 0 01.18-.44.36.36 0 01.19 0 54.42 54.42 0 0112.33 3.48 45.28 45.28 0 0110.92 6.6v.05A49.18 49.18 0 0030.2 6.99a54.27 54.27 0 00-12.23-3.3l.26-.4c.57 1.36 1.1 2.75 1.63 4.09a41.53 41.53 0 001.85 3.94 23.26 23.26 0 005.11 6.9 13.92 13.92 0 001.74 1.23c.32.2.4.22.68.13a2.04 2.04 0 00.75-.51c1.02-1.1 2.14-2 3.16-3.03 2.06-2.06 4.04-4.23 6.16-6.28 1.1-1.02 2.2-2.02 3.3-2.94a16.48 16.48 0 013.8-2.43 6.22 6.22 0 014.52-.27c1.55.57 2.26 2.12 3.36 2.84a2.78 2.78 0 001.97.13c.69-.14 1.37-.4 2.1-.59l4.26-1.01 8.58-1.98a.14.14 0 01.18.1.17.17 0 01-.08.17 53.25 53.25 0 01-8.5 2.56 16.22 16.22 0 00-7.7 3.9c-2.06 2.06-3.37 4.75-5.04 7.2a17.37 17.37 0 01-2.96 3.44A12.9 12.9 0 0134.3 23.2c-2.82-1.03-5.3-2.73-8.17-3.3a7.12 7.12 0 00-4.21.3 2.27 2.27 0 00-1.3 1.48 1.43 1.43 0 00.71 1.66 2.63 2.63 0 002.02.14 12.74 12.74 0 002-.88 27.47 27.47 0 003.7-2.4h.07a.27.27 0 010 .1z"/>
  <path class="a" d="M1.58 16.17c-.25 1.88-.48 3.75-.69 5.61a18.15 18.15 0 00-.1 2.77 2.5 2.5 0 00.11.58c0 .08.08.12 0 .08s-.15 0-.1 0a4.4 4.4 0 00.75-.91c.99-1.54 1.81-3.3 2.75-4.92a16.9 16.9 0 011.58-2.46 3.55 3.55 0 01.72-.62 1.34 1.34 0 01.56-.25.96.96 0 01.78.26 1.7 1.7 0 01.44.96 4.74 4.74 0 010 .78 51.28 51.28 0 01-.77 5.68 20.17 20.17 0 00-.28 2.78c0 .85.14 2.08 1.04 1.76a5.4 5.4 0 002.13-1.67 20.88 20.88 0 001.67-2.2 22.2 22.2 0 001.32-2.46 7 7 0 00.73-2.55c0-.19-.07-.32-.09-.3s0 0-.17.08a4.05 4.05 0 00-.87.87 9 9 0 00-1.3 2.33 10.4 10.4 0 00-.52 5.26 2.7 2.7 0 001.05 1.91.72.72 0 00.75-.09 4.93 4.93 0 00.97-.77 27.36 27.36 0 003.3-4.4c1.97-3.17 3.77-6.48 5.5-9.88S26.2 7.7 27.9 4.27a.06.06 0 01.08 0 .07.07 0 010 .08 138.06 138.06 0 01-9.6 20.6 25 25 0 01-3.48 4.67 5.72 5.72 0 01-1.26.97 2.68 2.68 0 01-.93.3 2.05 2.05 0 01-1.02-.21 2.77 2.77 0 01-1.22-1.33 5.6 5.6 0 01-.46-1.52 11.27 11.27 0 01.74-5.85 9.89 9.89 0 011.54-2.56 4.47 4.47 0 011.19-1.1 1.6 1.6 0 01.51-.15.93.93 0 01.65.19 1.18 1.18 0 01.37.99 7.77 7.77 0 01-.99 2.82 25.05 25.05 0 01-1.5 2.44 20.46 20.46 0 01-1.76 2.26 6.33 6.33 0 01-2.3 1.78 1.15 1.15 0 01-.84 0 1.19 1.19 0 01-.56-.62 4.4 4.4 0 01-.29-1.47 20.87 20.87 0 01.08-2.88c.14-1.9.42-3.8.42-5.6a2.89 2.89 0 000-.62.96.96 0 00-.1-.32h.05a2.81 2.81 0 00-.4.4 19.42 19.42 0 00-1.56 2.35c-.96 1.61-1.81 3.3-2.9 4.9a3.62 3.62 0 01-1.1 1.17.75.75 0 01-.77 0 .88.88 0 01-.33-.5A2.86 2.86 0 010 24.6a17.77 17.77 0 01.26-2.89c.31-1.88.73-3.72 1.2-5.56a.07.07 0 01.08 0s.05-.01.04.02zM25.82 26.45c.81-2.06 1.58-4.12 2.5-6.12s1.78-4 2.75-6a42 42 0 013.3-5.8 22.28 22.28 0 014.57-4.85 38.58 38.58 0 00-3.78 5.35c-1.1 1.89-2.02 3.84-2.96 5.83s-1.89 3.98-2.9 5.94a41.47 41.47 0 01-3.48 5.65z"/>
  <path class="a" d="M38.52 0l-3.78 4.19c-1.24 1.4-2.5 2.78-3.8 4.14a49.5 49.5 0 01-4.12 3.89l-1.1.88c-.36.28-.7.6-1.1.89a3.2 3.2 0 01-.7.37 2.6 2.6 0 01-.76.17 3.86 3.86 0 01-1.42-.39 4.99 4.99 0 001.35 0 3.55 3.55 0 00.57-.3 2.64 2.64 0 00.45-.42c.29-.34.55-.7.9-1.1l.95-1.03a338 338 0 013.8-4.12 40.9 40.9 0 014.06-3.87 24.35 24.35 0 014.7-3.3z"/>
  <path class="a" d="M23.3 14.55a26.37 26.37 0 01-4.4 3.1 6.34 6.34 0 01-2.63.95 2.56 2.56 0 01-2.6-1.5 2.66 2.66 0 01.88-3.04 5.15 5.15 0 012.82-1.1 11.33 11.33 0 015.4 1.36 45.36 45.36 0 005.02 1.89 16.48 16.48 0 004.96.92 17.45 17.45 0 009.68-2.73.09.09 0 01.12 0 .08.08 0 010 .1 11.53 11.53 0 01-9.89 4.4 12.89 12.89 0 01-5.35-1.62 27.39 27.39 0 00-4.74-2.45 11.2 11.2 0 00-5-.35 5.02 5.02 0 00-2.2.67 1.77 1.77 0 00-.84 1.67 1.66 1.66 0 001.7 1.1 5.84 5.84 0 002.45-.78 29.84 29.84 0 004.54-2.72.1.1 0 01.12 0 .09.09 0 01-.05.13z"/>
  <path class="a" d="M45.98 16.96a7.08 7.08 0 01-2.38 4.4 5.5 5.5 0 01-5 1.17 3.05 3.05 0 01-2.06-1.78 2.33 2.33 0 01-.1-1.4 3.14 3.14 0 01.58-1.2 4.16 4.16 0 014.73-1.28 6.18 6.18 0 012.1 1.43c.6.6 1.17 1.16 1.73 1.82a14.09 14.09 0 011.45 2.08l.62 1.1a4 4 0 00.3.45c.1.14.2.14.07.1s-.07.06 0-.1a5.18 5.18 0 00.17-.49c.1-.38.19-.79.32-1.18a12.5 12.5 0 01.9-2.39 12 12 0 013.1-3.94h.07v.07a19.1 19.1 0 00-2.37 4.22c-.28.76-.5 1.52-.7 2.3-.08.4-.18.8-.3 1.2a4.07 4.07 0 01-.23.68 1.6 1.6 0 01-.29.4.91.91 0 01-1.23.06 2.04 2.04 0 01-.3-.31 6.1 6.1 0 01-.37-.59l-.57-1.1a20.51 20.51 0 00-1.27-2.04c-1.04-1.22-1.92-2.72-3.3-3.4a3.4 3.4 0 00-4.3 1.2 1.98 1.98 0 00-.21 2.06 2.5 2.5 0 001.67 1.2 5.23 5.23 0 004.3-.92 7.84 7.84 0 002.74-3.83h.07a.06.06 0 01.05.02z"/>
  <circle cx="1.34" cy="1.34" r="1.34" transform="translate(14.28 14.77)" fill="#fff"/>
</svg>
