<svg xmlns="http://www.w3.org/2000/svg" xmlns:xlink="http://www.w3.org/1999/xlink" viewBox="0 0 162 162"><defs><style>.cls-1{fill:url(#linear-gradient);}.cls-2{fill:url(#linear-gradient-2);}.cls-3{fill:url(#linear-gradient-3);}.cls-4{fill:url(#linear-gradient-4);}.cls-5{fill:url(#linear-gradient-5);}.cls-6{fill:url(#linear-gradient-6);}.cls-7{isolation:isolate;}.cls-8{fill:#101334;}.cls-9{fill:#fee1c5;}.cls-10{fill:#f3b49d;}.cls-11{mask:url(#mask);}.cls-12{fill:#fee8d8;}.cls-13{fill:#fdcfaf;}.cls-14{fill:#facab0;}.cls-15{mask:url(#mask-2);}.cls-16{mask:url(#mask-3);}.cls-17{mask:url(#mask-4);}.cls-18{mask:url(#mask-5);}.cls-19{fill:#fff1e7;opacity:0.6;mix-blend-mode:screen;}.cls-20{mask:url(#mask-6);}.cls-21{fill:#fff;}</style><linearGradient id="linear-gradient" x1="264.46" y1="-424.48" x2="293.2" y2="-454.68" gradientTransform="translate(252.88 574.4) rotate(-49.49)" gradientUnits="userSpaceOnUse"><stop offset="0" stop-color="#010101"/><stop offset="1" stop-color="#fff"/></linearGradient><linearGradient id="linear-gradient-2" x1="231.46" y1="-365.15" x2="231.46" y2="-394.49" gradientTransform="translate(162.71 514.87) rotate(-45)" xlink:href="#linear-gradient"/><linearGradient id="linear-gradient-3" x1="241.54" y1="-370.71" x2="240.79" y2="-401.64" gradientTransform="translate(162.71 514.87) rotate(-45)" xlink:href="#linear-gradient"/><linearGradient id="linear-gradient-4" x1="251.53" y1="-367.29" x2="249.74" y2="-405.51" gradientTransform="translate(162.71 514.87) rotate(-45)" xlink:href="#linear-gradient"/><linearGradient id="linear-gradient-5" x1="260.71" y1="-365.13" x2="259.2" y2="-401.56" gradientTransform="translate(162.71 514.87) rotate(-45)" xlink:href="#linear-gradient"/><linearGradient id="linear-gradient-6" x1="231.37" y1="-336.29" x2="253.24" y2="-355.77" gradientTransform="translate(162.71 514.87) rotate(-45)" xlink:href="#linear-gradient"/><mask id="mask" x="92.11" y="55.76" width="18.16" height="41.31" maskUnits="userSpaceOnUse"><path class="cls-1" d="M99.29,56.06a8,8,0,0,1,2.39-.3l2.42,7.74a38.24,38.24,0,0,1,1.18,7.31c.13,1.9-.12,6.18.32,8.31s3.62,9.42,4.33,11.91a13.86,13.86,0,0,1,.08,5.55,18,18,0,0,1-9.14-.2,16.56,16.56,0,0,1-8-5.23,9.73,9.73,0,0,1-.25-7.06c.88-2.88,2.95-5.94,3.76-9.88S94.8,67.48,95.7,63C96.64,58.16,98.59,56.37,99.29,56.06Z"/></mask><mask id="mask-2" x="46.88" y="70.52" width="23.61" height="27.55" maskUnits="userSpaceOnUse"><path class="cls-2" d="M47.58,71.43c-1.5,1.55-.23,3.95.58,5.11,4.7,6.68,19.36,21.54,19.36,21.54a19.73,19.73,0,0,1,1.06-4.83,24.28,24.28,0,0,1,1.91-3.68S52.89,72.37,51.9,71.49A3,3,0,0,0,47.58,71.43Z"/></mask><mask id="mask-3" x="48.01" y="59.59" width="27.81" height="26.21" maskUnits="userSpaceOnUse"><path class="cls-3" d="M48.74,60.32c1.62-1.7,4.51,0,5.41.76,1.45,1.22,16,15,17.28,16.21s4.21,3.64,4.38,4.34-2.25,3.51-3.11,4S70.44,85.33,69,83.9s-2.38-2.65-4.23-4.42-8.21-7-9.39-8.06-1.7-1.85-3-3a17.16,17.16,0,0,1-3.34-3.1C48.3,64.18,47.3,61.82,48.74,60.32Z"/></mask><mask id="mask-4" x="51.78" y="50.12" width="31.28" height="28.42" maskUnits="userSpaceOnUse"><path class="cls-4" d="M52.63,51.21a3.57,3.57,0,0,0-.31,4.19,19.6,19.6,0,0,0,3.32,3.7c1.47,1.49,5.26,5.12,7.12,6.85,2.23,2.08,4.59,4.2,7.75,6.86,2.9,2.45,5.08,5.26,6.86,5.66s3-.85,3.81-1.51,1.9-1.19,1.88-2c0-.41-2.42-2.52-4.9-4.76-2.21-2-4.47-4.1-5.38-4.94-1.93-1.78-7.37-7.11-9.72-9.22-2-1.77-4.86-4.91-6.69-5.63A3.07,3.07,0,0,0,52.63,51.21Z"/></mask><mask id="mask-5" x="61.22" y="46.66" width="29.31" height="26.43" maskUnits="userSpaceOnUse"><path class="cls-5" d="M62.36,47.61c2.29-2.34,5.22.24,6.43,1.19.41.33,2.19,1.94,4.1,3.67,4,3.6,6.6,6.21,8.52,8s7.26,6.07,8.31,7.24a2.37,2.37,0,0,1,.22,3.35,4.61,4.61,0,0,1-3.9,2,4.7,4.7,0,0,1-3.23-1,72.51,72.51,0,0,1-6.2-5.84c-1.5-1.53-3.15-3.19-4.12-4.1-1.31-1.24-3.34-3-5.61-5-2.06-1.85-3.71-3.41-4.09-3.84C62,52.37,60,50.08,62.36,47.61Z"/></mask><mask id="mask-6" x="73.27" y="100.68" width="31.3" height="13.55" maskUnits="userSpaceOnUse"><path class="cls-6" d="M88.48,101c12,1.85,16.28,7.79,16.08,8.61s-3.61,3.92-6.81,4.48a9.15,9.15,0,0,1-3.23-.08c-2.14-.41-5.07-1.07-7.57-1.58a20.94,20.94,0,0,1-5.35-1.81c-4-2-8.8-5.56-8.29-7.25C73.55,102.61,79.7,99.68,88.48,101Z"/></mask></defs><g class="cls-7"><g id="Layer_2" data-name="Layer 2"><g id="Layer_1-2" data-name="Layer 1"><rect class="cls-8" width="162" height="162"/><path class="cls-9" d="M111.37,89.32c.89,3.73,1.26,4.5,1.39,6.46s.41,3.52.34,4.79c0,1-1.18,4.48-6.37,9.42-4.57,4.35-8.36,5.74-9.69,5.8-1.17.06-1.6-.3-4.37-.63a46.35,46.35,0,0,1-11.18-2.49c-4.07-1.6-7.53-5-9.44-6.71-3-2.69-9.34-10-11.84-12.75-2.85-3.1-11.28-12.65-13.37-15.44-1.83-2.47-1.62-5.08-.1-6.56,1.93-1.88,4.12-1,5.54.26,2,1.68,6.18,5.82,8.59,8s11.1,10,11.1,10A51.81,51.81,0,0,1,77.4,82a62,62,0,0,1,6.91-6.55s-4.19-3.58-10-9-10.5-10-11.69-11.08c-1.5-1.39-4-4.34-1.22-7.41s5.89-.86,7.6.63c1.55,1.35,7.91,7.07,13.36,12.29,9.78,9.38,15.52,10.7,15.52,10.7l10.54,11.38Z"/><path class="cls-9" d="M111.37,89.32c.89,3.73,1.26,4.5,1.39,6.46s.41,3.52.34,4.79c0,1-1.18,4.48-6.37,9.42-4.57,4.35-8.36,5.74-9.69,5.8-1.17.06-1.6-.3-4.37-.63a46.35,46.35,0,0,1-11.18-2.49c-4.07-1.6-7.53-5-9.44-6.71-3-2.69-9.34-10-11.84-12.75-2.85-3.1-11.28-12.65-13.37-15.44-1.83-2.47-1.62-5.08-.1-6.56,1.93-1.88,4.12-1,5.54.26,2,1.68,6.18,5.82,8.59,8s11.1,10,11.1,10A51.81,51.81,0,0,1,77.4,82a62,62,0,0,1,6.91-6.55s-4.19-3.58-10-9-10.5-10-11.69-11.08c-1.5-1.39-4-4.34-1.22-7.41s5.89-.86,7.6.63c1.55,1.35,7.91,7.07,13.36,12.29,9.78,9.38,15.52,10.7,15.52,10.7l10.54,11.38Z"/><path class="cls-9" d="M111.37,89.32c.89,3.73,1.18,4.5,1.31,6.46s.49,3.52.42,4.79c0,1-1.18,4.48-6.37,9.42-4.57,4.35-8.36,5.74-9.69,5.8-1.17.06-1.6-.3-4.37-.63a46.35,46.35,0,0,1-11.18-2.49c-4.07-1.6-7.53-5-9.44-6.71-3-2.69-9.34-10-11.84-12.75-2.85-3.1-11.28-12.65-13.37-15.44-1.83-2.47-1.62-5.08-.1-6.56,1.93-1.88,4.12-1,5.54.26,2,1.68,6.18,5.82,8.59,8s11.1,10,11.1,10A51.81,51.81,0,0,1,77.4,82a62,62,0,0,1,6.91-6.55s-4.19-3.58-10-9-10.5-10-11.69-11.08c-1.5-1.39-4-4.34-1.22-7.41s5.89-.86,7.6.63c1.55,1.35,7.91,7.07,13.36,12.29,9.78,9.38,15.52,10.7,15.52,10.7l10.54,11.38Z"/><path class="cls-9" d="M47.55,60.79c-2.31,2.52-.53,5.36,1.07,7C50,69.28,52,71.26,55.2,74.23,59,77.76,72,89.7,72,89.7a36,36,0,0,1,2.51-3.94c1.49-2,2.92-3.68,2.92-3.68S56.09,62.47,54.31,60.94C52.78,59.63,50,58.12,47.55,60.79Z"/><path class="cls-9" d="M51.44,51.4c-2.33,2.49-.72,5.46.86,7.13C53.71,60,55.71,62,58.85,65,62.6,68.6,77.46,82.39,77.46,82.39a43.65,43.65,0,0,1,3.26-3.46c1.88-1.78,3.86-3.36,3.86-3.36S60.19,53,58.42,51.5C56.9,50.17,53.93,48.76,51.44,51.4Z"/><path class="cls-10" d="M92.76,74.74c-.19,2.93-3,5-2.55,10.17.2,2.47,2.5,5.9,2.5,5.9l6.68-6.47,6.49-5.28-8-7.5s-3.44-.79-9.53-5.5C88.7,66.32,93.12,69.28,92.76,74.74Z"/><path class="cls-10" d="M51.69,54.66a4.48,4.48,0,0,1,1.38-4.43,5,5,0,0,0-1.63,1.17c-2.33,2.49-.72,5.46.86,7.13C53.71,60,55.71,62,58.85,65s13.06,12.21,17,15.87c1,.93-.2,2-.2,2a14.21,14.21,0,0,0,3-1.93l2-3.36s-2.58,2.3-4.81.37c-1.83-1.57-4.64-4.23-5.64-5.13S67,70.25,65.38,68.77s-2.56-2.35-4.93-4.52c-2.06-1.9-4.17-4.08-5-4.89C53.78,57.64,52.24,56.5,51.69,54.66Z"/><path class="cls-10" d="M47.74,63a3.72,3.72,0,0,1,1.19-3.28,5.06,5.06,0,0,0-1.38,1.08c-2.31,2.52-.53,5.36,1.07,7C50,69.28,52,71.26,55.2,74.23c2.51,2.35,9.13,8.41,13.28,12.21l2,1.85c1,.87.17,2.78.17,2.78s2.77-5.13,3.39-6.11c0,0-1.1,1.27-2.1,1.28S70.68,86,68.85,84.4s-2.52-2.89-4.62-4.82-6.37-5.43-8.59-7.32c-1.33-1.14-2.58-2.86-4.94-4.71A6.66,6.66,0,0,1,47.74,63Z"/><path class="cls-10" d="M106.71,108.8c-2.91,2.66-6.39,5.34-9.37,5.56-2.63.19-3.24-.23-6.21-.86-2.56-.54-5.78-.84-9.4-2.51a32.43,32.43,0,0,1-8.4-5.93C68.21,100.2,65,96.17,60.45,91.35,57.9,88.64,47.73,77.94,46.62,74.24a3.83,3.83,0,0,1,.93-3.62,3.57,3.57,0,0,0-.79.61c-1.52,1.48-1.73,4.09.1,6.55,2.08,2.79,10.52,12.35,13.37,15.45C62.73,96,69.12,103.29,72.06,106c1.92,1.75,5.38,5.11,9.45,6.7a45.32,45.32,0,0,0,11.18,2.49c2.77.34,3.2.69,4.37.64,1.33-.07,5.11-1.46,9.69-5.81a25.76,25.76,0,0,0,5.69-7.26A79.82,79.82,0,0,1,106.71,108.8Z"/><path class="cls-10" d="M70,93.94c.28.07,2.25-4.85,8.38-11.51A59.61,59.61,0,0,1,89.6,72.6c0-.25-5.43.71-12.5,8.57C70.55,88.47,69.7,93.86,70,93.94Z"/><path class="cls-10" d="M62.62,46.93a5.37,5.37,0,0,0-1.2,1c-2.82,3.07-.28,6,1.22,7.42,1.19,1.1,5.87,5.61,11.68,11.07,3.5,3.29,6.41,5.89,8.18,7.45.91.8,1,1.31.33,2l4.6-2.73A5.26,5.26,0,0,1,83.85,73a18.09,18.09,0,0,1-3.3-2.61c-1.55-1.37-3-2.9-3.87-3.71-1.07-1-2.38-2.64-5-5-2.36-2.13-3.69-3.2-5.72-5s-4.57-4-4.84-5.75A4.24,4.24,0,0,1,62.62,46.93Z"/><path class="cls-9" d="M92.34,92.26a18,18,0,0,1-.63-8.57c1-5.12,2.85-7.18,3-11.16.11-3.11-1.69-7.26,0-12,2-5.64,7.13-4.92,7.13-4.92s1.13,3.16,1.83,5.22,2,5.09,2.56,7.31c.59,2.54.62,6.43,1.31,9.58a40.67,40.67,0,0,0,2,6.31Z"/><g class="cls-11"><path class="cls-12" d="M99.29,56.06a8,8,0,0,1,2.39-.3l2.42,7.74a38.24,38.24,0,0,1,1.18,7.31c.13,1.9-.12,6.18.32,8.31s3.62,9.42,4.33,11.91a13.86,13.86,0,0,1,.08,5.55,18,18,0,0,1-9.14-.2,16.56,16.56,0,0,1-8-5.23,9.73,9.73,0,0,1-.25-7.06c.88-2.88,2.95-5.94,3.76-9.88S94.8,67.48,95.7,63C96.64,58.16,98.59,56.37,99.29,56.06Z"/></g><path class="cls-10" d="M96.11,73c.06-3.36-1.46-4.59-.8-9.69a14,14,0,0,1,3.42-7.14h-.21a7.07,7.07,0,0,0-3.81,4.36c-1.71,4.77.09,8.91,0,12-.13,4-2,6-3,11.15a18.06,18.06,0,0,0,.63,8.58s-1.12-4.69-.1-8.29S96.06,76.33,96.11,73Z"/><path class="cls-13" d="M104.68,63.53s.09,1.46.75,5.23-.31,7.77,1.14,12.6S110,89,110.51,91.24s.33,3.64.88,5.38,1.35,5.37,1.35,5.37c.8-1.88.28-4.26,0-6.35-.28-1.94,0-4.19-.81-6.41-.51-1.15-2.36-5.21-2.36-5.21h0a40.67,40.67,0,0,1-2-6.31c-.69-3.15-.72-7-1.31-9.58A38.83,38.83,0,0,0,104.68,63.53Z"/><path class="cls-14" d="M86.11,88.68s-2.14,4.77-.46,7.77,9.75,5.29,9.75,5.29L84.18,100l-2.8-1.58-.55-1.67L83,93.91Z"/><path class="cls-10" d="M81.2,96.06c-.38.38-.75.72-1.09,1a19.25,19.25,0,0,1-3.85,2.7.37.37,0,0,1-.5-.17.37.37,0,0,1,.17-.51h0a21.76,21.76,0,0,0,9.62-11,.38.38,0,0,1,.71.27A22.23,22.23,0,0,1,81.2,96.06Z"/><path class="cls-10" d="M98.48,103.62a.38.38,0,0,1-.43.07A32.44,32.44,0,0,0,78.32,101a.38.38,0,0,1-.45-.28.37.37,0,0,1,.28-.46,27.07,27.07,0,0,1,6.15-.52A34,34,0,0,1,98.37,103a.37.37,0,0,1,.18.5A.41.41,0,0,1,98.48,103.62Z"/><path class="cls-10" d="M84.33,92.17S81.26,97,81.61,98c.49,1.4,3.76,1.42,5.13,1.6s4.58,1,4.58,1-5.47-.57-7.51-.68a27.92,27.92,0,0,0-5.43.59,1.14,1.14,0,0,0-.53-.92,1.55,1.55,0,0,0-1.17,0,28.82,28.82,0,0,0,4-3.18A42.23,42.23,0,0,0,84.33,92.17Z"/><path class="cls-10" d="M95.1,92.15A22.17,22.17,0,0,0,100.65,96a19,19,0,0,0,6.11,1.38,10.42,10.42,0,0,1-6.34-.77A17.55,17.55,0,0,1,95.1,92.15Z"/><g class="cls-15"><path class="cls-12" d="M47.58,71.43c-1.5,1.55-.23,3.95.58,5.11,4.7,6.68,19.36,21.54,19.36,21.54a19.73,19.73,0,0,1,1.06-4.83,24.28,24.28,0,0,1,1.91-3.68S52.89,72.37,51.9,71.49A3,3,0,0,0,47.58,71.43Z"/></g><g class="cls-16"><path class="cls-12" d="M48.74,60.32c1.62-1.7,4.51,0,5.41.76,1.45,1.22,16,15,17.28,16.21s4.21,3.64,4.38,4.34-2.25,3.51-3.11,4S70.44,85.33,69,83.9s-2.38-2.65-4.23-4.42-8.21-7-9.39-8.06-1.7-1.85-3-3a17.16,17.16,0,0,1-3.34-3.1C48.3,64.18,47.3,61.82,48.74,60.32Z"/></g><g class="cls-17"><path class="cls-12" d="M52.63,51.21a3.57,3.57,0,0,0-.31,4.19,19.6,19.6,0,0,0,3.32,3.7c1.47,1.49,5.26,5.12,7.12,6.85,2.23,2.08,4.59,4.2,7.75,6.86,2.9,2.45,5.08,5.26,6.86,5.66s3-.85,3.81-1.51,1.9-1.19,1.88-2c0-.41-2.42-2.52-4.9-4.76-2.21-2-4.47-4.1-5.38-4.94-1.93-1.78-7.37-7.11-9.72-9.22-2-1.77-4.86-4.91-6.69-5.63A3.07,3.07,0,0,0,52.63,51.21Z"/></g><g class="cls-18"><path class="cls-12" d="M62.36,47.61c2.29-2.34,5.22.24,6.43,1.19.41.33,2.19,1.94,4.1,3.67,4,3.6,6.6,6.21,8.52,8s7.26,6.07,8.31,7.24a2.37,2.37,0,0,1,.22,3.35,4.61,4.61,0,0,1-3.9,2,4.7,4.7,0,0,1-3.23-1,72.51,72.51,0,0,1-6.2-5.84c-1.5-1.53-3.15-3.19-4.12-4.1-1.31-1.24-3.34-3-5.61-5-2.06-1.85-3.71-3.41-4.09-3.84C62,52.37,60,50.08,62.36,47.61Z"/></g><path class="cls-19" d="M103.67,60.81c-.7-2.06-1.83-5.22-1.83-5.22a6.48,6.48,0,0,0-2.06.14h0S99.21,57,101,59.82s3.64,3.54,3.64,3.54C104.26,62.44,103.92,61.56,103.67,60.81Z"/><g class="cls-20"><path class="cls-12" d="M88.48,101c12,1.85,16.28,7.79,16.08,8.61s-3.61,3.92-6.81,4.48a9.15,9.15,0,0,1-3.23-.08c-2.14-.41-5.07-1.07-7.57-1.58a20.94,20.94,0,0,1-5.35-1.81c-4-2-8.8-5.56-8.29-7.25C73.55,102.61,79.7,99.68,88.48,101Z"/></g><path class="cls-21" d="M107.86,54.12a31.49,31.49,0,0,1,3.69,4.43,27.58,27.58,0,0,1,2.34,4.07,17.64,17.64,0,0,1,1.1,3c.18.73.19,1.16.05,1.22s-.43-.26-.85-.86-1-1.48-1.69-2.55-1.58-2.3-2.62-3.62a47.76,47.76,0,0,0-3.61-4.06,46,46,0,0,0-4.07-3.61c-1.32-1-2.56-1.91-3.63-2.62S96.63,48.22,96,47.8s-.92-.71-.86-.85.49-.13,1.22,0a17.09,17.09,0,0,1,3,1.09,28.57,28.57,0,0,1,4.08,2.34A31.49,31.49,0,0,1,107.86,54.12Z"/><path class="cls-21" d="M54.14,107.88a31.49,31.49,0,0,1-3.69-4.43,27.58,27.58,0,0,1-2.34-4.07,17.64,17.64,0,0,1-1.1-3c-.18-.72-.19-1.16,0-1.22s.43.26.85.86,1,1.48,1.69,2.55,1.58,2.3,2.62,3.62a47.76,47.76,0,0,0,3.61,4.06,46,46,0,0,0,4.07,3.61c1.32,1,2.56,1.91,3.63,2.62s1.94,1.27,2.54,1.69.92.71.86.85-.49.13-1.22,0a17.09,17.09,0,0,1-3-1.09,28.57,28.57,0,0,1-4.08-2.34A31.49,31.49,0,0,1,54.14,107.88Z"/><path class="cls-21" d="M112,50.27a26.09,26.09,0,0,1,4.24,5.55c.87,1.57,1.18,2.66.92,2.82s-1-.61-2.22-1.89-2.72-3-4.55-4.89-3.57-3.42-4.84-4.6-2-2-1.87-2.23,1.25.06,2.81.94A26.28,26.28,0,0,1,112,50.27Z"/><path class="cls-21" d="M50,111.73a26.09,26.09,0,0,1-4.24-5.55c-.87-1.57-1.18-2.66-.92-2.82s1.06.61,2.22,1.89,2.72,3,4.55,4.89,3.57,3.42,4.84,4.6,2,2,1.87,2.23-1.25-.06-2.81-.94A26.28,26.28,0,0,1,50,111.73Z"/></g></g></g></svg>